<svg xmlns="http://www.w3.org/2000/svg" viewBox="0 0 470 67.26"><g id="Слой_2" data-name="Слой 2"><g id="Слой_1-2" data-name="Слой 1"><path d="M34.18,12.51a16.07,16.07,0,0,1-.5,3.76,9.53,9.53,0,0,1-1.55,3.39,10.17,10.17,0,0,1-2.86,2.71A13.19,13.19,0,0,1,25,24.15v.44a18.55,18.55,0,0,1,4.17,1.23,10.63,10.63,0,0,1,5.71,6.09A14.08,14.08,0,0,1,35.73,37a13,13,0,0,1-1.68,6.71,13.27,13.27,0,0,1-4.47,4.62A21,21,0,0,1,23.24,51a32,32,0,0,1-7.33.86H12.74c-1.31,0-2.67-.06-4.16-.12s-3-.19-4.48-.31A26.37,26.37,0,0,1,0,50.76V1.18C.93,1.06,2,.87,3.17.75A32.68,32.68,0,0,1,7,.38C8.33.26,9.69.19,11.12.13S14,.07,15.35.07a43.57,43.57,0,0,1,7,.56,20.1,20.1,0,0,1,6,1.9,10.94,10.94,0,0,1,4.22,3.82A11.06,11.06,0,0,1,34.18,12.51Zm-21.5,9.43c.68,0,1.49,0,2.42-.06s1.68-.13,2.24-.19a13.1,13.1,0,0,0,4.85-2.59,5.56,5.56,0,0,0,2-4.49,5.78,5.78,0,0,0-.75-3.08,5,5,0,0,0-2-1.91,8.11,8.11,0,0,0-2.79-1,19.13,19.13,0,0,0-3.24-.31c-1.3,0-2.48,0-3.54.07s-1.92.12-2.48.18V21.88h3.23Zm3.23,21.68a14.29,14.29,0,0,0,3.54-.43,10.76,10.76,0,0,0,3-1.3,8,8,0,0,0,2.12-2.21,6,6,0,0,0,.8-3.21,6.51,6.51,0,0,0-.93-3.69,5.92,5.92,0,0,0-2.48-2.1,11.64,11.64,0,0,0-3.42-1,37,37,0,0,0-3.79-.19H9.45V43.25a2.78,2.78,0,0,0,1.18.18c.56.06,1.12.06,1.67.13s1.25.06,1.87.06Z"/><path d="M41.89,43.24h9V23.1h-9v-8H58.23l1.12,4.74h.31A19,19,0,0,1,64.32,16a11.71,11.71,0,0,1,6.09-1.6,8.15,8.15,0,0,1,6.83,3.14c1.68,2.1,2.49,5.61,2.49,10.6H71.22a7.24,7.24,0,0,0-.75-3.76,2.61,2.61,0,0,0-2.42-1.17,7.31,7.31,0,0,0-4.66,1.42,13.88,13.88,0,0,0-3,3.32V43.24H76.13v7.88H42V43.24Z"/><path d="M89.11,17.62a38.79,38.79,0,0,1,6.71-2.22,38.38,38.38,0,0,1,9-.92,19.43,19.43,0,0,1,6.41.92,12.25,12.25,0,0,1,4.28,2.52,9.41,9.41,0,0,1,2.36,3.95,16.68,16.68,0,0,1,.75,5.17,59.63,59.63,0,0,1-.25,6.28,44.67,44.67,0,0,0-.25,4.62c0,1,.07,2.16.13,3.39.12.68.18,1.29.25,2h4.72v7.82H111.05l-.93-4.86h-.38a12.22,12.22,0,0,1-4.1,3.82,13.55,13.55,0,0,1-7.21,1.6,12.31,12.31,0,0,1-8.57-2.9,9.76,9.76,0,0,1-3.17-7.63,11.38,11.38,0,0,1,1.12-5.24A8.87,8.87,0,0,1,91,32.34a16.72,16.72,0,0,1,5.09-2.1,31.65,31.65,0,0,1,6.65-.67c.87,0,1.81.06,2.74.12s2.11.18,3.54.31a6,6,0,0,0,.12-1.42V27.23a4.76,4.76,0,0,0-1.55-3.95A7.65,7.65,0,0,0,103,22.11a22.41,22.41,0,0,0-6.65.93,43.24,43.24,0,0,0-5,1.84ZM101.48,44a9,9,0,0,0,5.16-1.23,8.31,8.31,0,0,0,2.48-2.71V35.79a19.32,19.32,0,0,0-2.17-.31,24.61,24.61,0,0,0-3.11-.19,14,14,0,0,0-2.73.25,8.78,8.78,0,0,0-2.43.8,4.45,4.45,0,0,0-1.74,1.42,3.36,3.36,0,0,0-.62,2.09A4,4,0,0,0,97.5,43,6.38,6.38,0,0,0,101.48,44Z"/><path d="M130.44,43.24h12.8V23.1h-12.8v-8h22.18v28h13.43v7.94H130.44Zm11-37.82a5.07,5.07,0,0,1,1.68-3.82A6.55,6.55,0,0,1,147.78,0a7,7,0,0,1,4.84,1.6,5,5,0,0,1,1.81,3.82,4.67,4.67,0,0,1-1.81,3.76,7.46,7.46,0,0,1-4.84,1.48,6.84,6.84,0,0,1-4.66-1.48A4.77,4.77,0,0,1,141.44,5.42Z"/><path d="M170.52,15.15H183.2l1.12,4.75h.31a14,14,0,0,1,4.78-4,15,15,0,0,1,7.46-1.72,16.31,16.31,0,0,1,5,.74,9.85,9.85,0,0,1,4,2.4,11.73,11.73,0,0,1,2.67,4.49,22.51,22.51,0,0,1,1,7V51.12h-9.45V30.74c0-2.9-.68-5.06-2-6.35a6.87,6.87,0,0,0-5-2A8.27,8.27,0,0,0,188.23,24a7.62,7.62,0,0,0-3,3.82V51.12H175.8v-28h-5.22v-8Z"/><path d="M243.55,41.21c0-1-.62-1.73-1.8-2.28a28.43,28.43,0,0,0-4.41-1.6c-1.74-.5-3.67-1-5.72-1.48a24.33,24.33,0,0,1-5.72-2.1,14.24,14.24,0,0,1-4.41-3.38,7.86,7.86,0,0,1-1.8-5.3,8.85,8.85,0,0,1,1.18-4.68A10,10,0,0,1,224.16,17a14.87,14.87,0,0,1,4.91-2.09,24.61,24.61,0,0,1,6.22-.74,36,36,0,0,1,6.21.49,25.61,25.61,0,0,1,4.66,1.23,22,22,0,0,1,3.42,1.6c.93.62,1.74,1.17,2.42,1.6l-4,6.41c-.74-.43-1.55-.86-2.48-1.36s-1.93-.86-3-1.23a26.48,26.48,0,0,0-3.3-.92,15.28,15.28,0,0,0-3.35-.37,12.24,12.24,0,0,0-4.91.8,2.64,2.64,0,0,0-1.87,2.46c0,.87.63,1.54,1.81,2.1a25.43,25.43,0,0,0,4.41,1.48c1.74.43,3.66.92,5.71,1.47a36.89,36.89,0,0,1,5.72,2,13.92,13.92,0,0,1,4.41,3.26A7.58,7.58,0,0,1,253,40.41,10.42,10.42,0,0,1,249,49q-4,3.13-11.93,3.14a28.19,28.19,0,0,1-10.75-1.85A25.1,25.1,0,0,1,219,46.07l4.35-6.77a27.75,27.75,0,0,0,2.49,1.78,24.37,24.37,0,0,0,3.54,1.79,27.9,27.9,0,0,0,4.17,1.35,18,18,0,0,0,4.41.56,8.82,8.82,0,0,0,4-.8A3,3,0,0,0,243.55,41.21Z"/><path d="M266.36,23.1h-7.21v-8h7.21V7l9.44-2.65V15.15h19V23h-19V33.32c0,3.7.69,6.34,2.12,8a7.29,7.29,0,0,0,5.9,2.46,12.51,12.51,0,0,0,3.54-.49,12.21,12.21,0,0,0,2.86-1.17,12.67,12.67,0,0,0,2.3-1.6c.68-.56,1.37-1.11,1.93-1.6l4.35,6.46A13.2,13.2,0,0,1,295.69,48a27.27,27.27,0,0,1-4,2.1,27.68,27.68,0,0,1-4.47,1.41,23.3,23.3,0,0,1-4.6.5c-5.41,0-9.51-1.48-12.24-4.5s-4.1-7.76-4.1-14.29V23.1Z"/><path d="M308,17.62a37.2,37.2,0,0,1,15.73-3.14,19.41,19.41,0,0,1,6.4.92,12.3,12.3,0,0,1,4.29,2.52,9.62,9.62,0,0,1,2.36,3.95,17,17,0,0,1,.74,5.17,59.63,59.63,0,0,1-.25,6.28,44.43,44.43,0,0,0-.24,4.62c0,1,.06,2.16.12,3.39.12.68.19,1.29.25,2h4.72v7.82H329.93L329,46.26h-.37a12.35,12.35,0,0,1-4.11,3.82,13.63,13.63,0,0,1-7.2,1.6,12.32,12.32,0,0,1-8.58-2.9,9.76,9.76,0,0,1-3.17-7.63,11.38,11.38,0,0,1,1.12-5.24,8.94,8.94,0,0,1,3.23-3.57,16.68,16.68,0,0,1,5.1-2.1,31.58,31.58,0,0,1,6.65-.67c.87,0,1.8.06,2.73.12s2.11.18,3.54.31a5.52,5.52,0,0,0,.13-1.42V27.22a4.62,4.62,0,0,0-1.62-3.94,7.65,7.65,0,0,0-4.66-1.17,22.41,22.41,0,0,0-6.65.93,43.24,43.24,0,0,0-5,1.84ZM320.36,44a9,9,0,0,0,5.16-1.23A8.31,8.31,0,0,0,328,40.1V35.79a19.32,19.32,0,0,0-2.17-.31,24.61,24.61,0,0,0-3.11-.19,14,14,0,0,0-2.73.25,8.57,8.57,0,0,0-2.43.8,4.45,4.45,0,0,0-1.74,1.42,3.36,3.36,0,0,0-.62,2.09A4,4,0,0,0,316.38,43,6.38,6.38,0,0,0,320.36,44Z"/><path d="M384.68,47.67a20.81,20.81,0,0,1-7,3.33,31.17,31.17,0,0,1-8.33,1.11A23.33,23.33,0,0,1,361,50.75a18.06,18.06,0,0,1-6.15-3.82,15.86,15.86,0,0,1-3.79-6,22.13,22.13,0,0,1-1.31-7.76,19.44,19.44,0,0,1,1.56-8.07,17.23,17.23,0,0,1,4.22-6,18.33,18.33,0,0,1,6.4-3.69A24.49,24.49,0,0,1,370,14.17a30.43,30.43,0,0,1,7.65.92,39.61,39.61,0,0,1,5.46,1.79V29.56h-7.95V23a22.66,22.66,0,0,0-4.47-.49,13.13,13.13,0,0,0-4,.62,9.94,9.94,0,0,0-3.55,2,10.59,10.59,0,0,0-2.54,3.32,11.33,11.33,0,0,0-1,4.81,10.56,10.56,0,0,0,.81,4.25,11.5,11.5,0,0,0,2.24,3.39,10.36,10.36,0,0,0,3.6,2.28,13,13,0,0,0,4.72.8,16.51,16.51,0,0,0,6.78-1.17,22.44,22.44,0,0,0,4-2Z"/><polygon points="404 0.8 404 29.5 406.18 29.5 418.11 15.21 429.24 15.21 414.57 31.6 424.08 43.24 430.85 43.24 430.85 51.12 418.98 51.12 406.49 36.22 403.94 36.22 403.94 51.12 394.5 51.12 394.5 8.69 388.53 8.69 388.53 0.8 404 0.8"/><rect x="437.75" y="59.56" width="32.25" height="7.7"/></g></g></svg>