<?xml version="1.0" encoding="UTF-8"?><svg id="Layer_2" xmlns="http://www.w3.org/2000/svg" viewBox="0 0 313.12 100.19"><defs><style>.cls-1{fill:#fff;}.cls-1,.cls-2,.cls-3{stroke-width:0px;}.cls-2{fill:#333f48;}.cls-3{fill:#a03033;}</style></defs><g id="linije"><path class="cls-2" d="m263.79,30.7v39.68h-15.86v-3.2c-1.66,2.79-6.59,4.44-11.09,4.44-8.13,0-18.9-6.57-18.9-21.69.25-6.41,2.14-11.5,5.75-15.36,3.7-3.86,8.54-5.83,14.54-5.83,5.34,0,13.8.66,25.55,1.97Zm-30.64,19.39c0,5.01,3.37,8.63,7.97,8.63,2.22,0,4.43-.99,6.82-3.04v-14.21c-3.2-.25-5.34-.41-6.57-.41-5.01,0-8.22,3.53-8.22,9.04Z"/><path class="cls-2" d="m130.01,56.58c7.23,2.38,12.49,3.61,15.86,3.61,2.55,0,3.86-.49,3.86-1.56,0-1.15-1.23-1.56-2.79-2.05-.74-.25-3.29-.66-4.27-.9-9.86-2.3-14.13-5.34-14.13-12.82,0-9.2,6.66-14.21,18.4-14.21,5.92,0,11.91.9,18.07,2.79l-2.55,11.5c-6.74-2.05-11.67-3.04-14.79-3.04-2.46,0-3.7.66-3.7,1.97,0,1.15,1.07,1.64,2.71,2.05.99.08,3.45.57,4.85.9,8.96,2.05,13.89,5.34,13.89,12.98,0,8.79-6.74,13.8-18.24,13.8-5.83,0-12.57-1.23-20.05-3.7l2.88-11.34Z"/><path class="cls-2" d="m209.67,34.56c3.62,3.86,5.59,8.95,5.83,15.36,0,14.79-10.93,21.44-20.13,21.44-3.53,0-6.82-.16-9.86-.41v17.34h-15.94V30.7c10.68-1.31,19.22-1.97,25.63-1.97,6,0,10.85,1.97,14.46,5.83Zm-17.66,6.49c-1.23,0-3.37.16-6.49.41v16.43c2.22.33,4.44.49,6.74.49s4.19-.74,5.67-2.3c1.56-1.56,2.3-3.61,2.3-6,0-5.5-3.2-9.04-8.22-9.04Z"/><path class="cls-2" d="m313.12,44.26v26.13h-15.94v-21.2c0-4.19-1.72-6.24-5.18-6.24-.74,0-3.62.16-6.57.33v27.11h-15.94V30.7c11.67-1.31,20.87-1.97,27.52-1.97,9.61,0,16.11,6.24,16.11,15.53Z"/><path class="cls-3" d="m103.22,50.09c0,27.66-23.11,50.09-51.61,50.09S0,77.76,0,50.09,23.11,0,51.61,0s51.61,22.43,51.61,50.09Z"/><path class="cls-1" d="m71.85,49.96c0-4.56.62-8.57,1.9-11.9,1.28-3.39,3.23-7.13,5.8-11.24l-6.47-3.85c-6.41,7.95-9.59,16.93-9.59,26.98s3.18,18.98,9.59,27.19l6.47-3.9c-2.62-4.26-4.51-8.06-5.8-11.39-1.28-3.33-1.9-7.33-1.9-11.9Z"/><path class="cls-1" d="m59.64,26.83l-6.46-3.85c-6.41,7.95-9.59,16.93-9.59,26.98s3.18,18.98,9.59,27.19l6.46-3.9c-2.61-4.26-4.52-8.06-5.8-11.39-1.28-3.33-1.9-7.33-1.9-11.9s.62-8.57,1.9-11.9c1.28-3.39,3.23-7.13,5.8-11.24Z"/><path class="cls-1" d="m39.73,26.83l-6.46-3.85c-6.41,7.95-9.59,16.93-9.59,26.98s3.18,18.98,9.59,27.19l6.46-3.9c-2.62-4.26-4.51-8.06-5.8-11.39-1.28-3.33-1.9-7.33-1.9-11.9s.61-8.57,1.9-11.9c1.28-3.39,3.23-7.13,5.8-11.24Z"/></g></svg>