<svg xmlns="http://www.w3.org/2000/svg" width="889" height="425" viewBox="0 0 889 425" fill="none">
  <g clip-path="url(#clip0_465_6732)">
    <path d="M490.646 135.354C490.842 135.549 491.158 135.549 491.354 135.354L494.536 132.172C494.731 131.976 494.731 131.66 494.536 131.464C494.34 131.269 494.024 131.269 493.828 131.464L491 134.293L488.172 131.464C487.976 131.269 487.66 131.269 487.464 131.464C487.269 131.66 487.269 131.976 487.464 132.172L490.646 135.354ZM490.5 1.13964e-08L490.5 135L491.5 135L491.5 -1.13964e-08L490.5 1.13964e-08Z" fill="#9842A4"/>
    <path d="M651.89 422.427H584.544L527.057 386.989H461.445L404.942 422.427H329.535L457.656 134.935H523.359L651.89 422.427Z" stroke="#9842A4" stroke-miterlimit="10"/>
    <path d="M643.389 416.762H582.296L526.279 381.738H462.093L407.97 416.135H339.455L460.897 142.016H520.572L643.389 416.762Z" stroke="#9842A4" stroke-miterlimit="10"/>
    <path d="M634.886 410.389H579.909L525.228 375.778H462.311L410.44 409.133H348.664L463.713 148.389H517.492L634.886 410.389Z" stroke="#9842A4" stroke-miterlimit="10"/>
    <path d="M625.678 404.724H577.087L524.013 370.527H462.676L413.314 402.841H358.584L466.669 155.47H514.286L625.678 404.724Z" stroke="#9842A4" stroke-miterlimit="10"/>
    <path d="M617.177 398.351H574.839L523.235 364.567H463.323L416.34 395.84H368.504L469.911 161.843H511.499L617.177 398.351Z" stroke="#9842A4" stroke-miterlimit="10"/>
    <path d="M608.673 392.687H572.475L522.189 359.317H463.52L418.78 389.548H377.711L472.731 168.924H508.399L608.673 392.687Z" stroke="#9842A4" stroke-miterlimit="10"/>
    <path d="M600.172 387.022H570.239L521.413 353.955H464.158L421.794 383.242H387.631L475.975 175.297H505.603L600.172 387.022Z" stroke="#9842A4" stroke-miterlimit="10"/>
    <path d="M590.963 380.649H567.382L520.19 348.224H464.55L424.707 376.27H397.551L478.922 183.086H502.422L590.963 380.649Z" stroke="#9842A4" stroke-miterlimit="10"/>
    <path d="M582.461 374.984H565.062L519.155 342.856H464.719L427.104 369.963H406.76L481.756 189.459H499.296L582.461 374.984Z" stroke="#9842A4" stroke-miterlimit="10"/>
    <path d="M573.959 369.319H562.884L518.631 337.606H465.839L430.754 363.67H417.387L485.403 196.54H496.841L573.959 369.319Z" stroke="#9842A4" stroke-miterlimit="10"/>
    <path d="M564.75 362.946H559.927L517.145 331.647H465.775L433.07 356.67H426.598L487.936 202.913H493.343L564.75 362.946Z" stroke="#9842A4" stroke-miterlimit="10"/>
    <path d="M309.232 281.16C309.232 365.95 254.638 425 163.647 425H51.4258V137.319H163.647C256.913 137.319 309.232 194.099 309.232 281.16Z" stroke="#EE2F29" stroke-miterlimit="10"/>
    <path d="M296.084 281.16C296.084 365.95 242.602 425 156.618 425H51.4102V137.319H156.634C244.768 137.319 296.084 194.099 296.084 281.16Z" stroke="#EE2F29" stroke-miterlimit="10"/>
    <path d="M282.932 281.16C282.932 365.95 230.562 425 149.585 425H51.3906V137.319H149.618C232.619 137.319 282.932 194.099 282.932 281.16Z" stroke="#EE2F29" stroke-miterlimit="10"/>
    <path d="M269.784 281.16C269.784 365.95 218.525 425 142.556 425H51.375V137.319H142.604C220.475 137.319 269.784 194.099 269.784 281.16Z" stroke="#EE2F29" stroke-miterlimit="10"/>
    <path d="M256.636 281.16C256.636 365.95 206.49 425 135.526 425H51.3594V137.319H135.592C208.33 137.319 256.635 194.099 256.635 281.16H256.636Z" stroke="#EE2F29" stroke-miterlimit="10"/>
    <path d="M243.485 281.16C243.485 365.95 194.451 425 128.494 425H51.3418V137.319H128.577C196.183 137.319 243.485 194.099 243.485 281.16Z" stroke="#EE2F29" stroke-miterlimit="10"/>
    <path d="M230.337 281.16C230.337 365.95 182.415 425 121.465 425H51.3262V137.319H121.564C184.037 137.319 230.337 194.099 230.337 281.16Z" stroke="#EE2F29" stroke-miterlimit="10"/>
    <path d="M217.187 281.16C217.187 365.95 170.378 425 114.434 425H51.3086V137.319H114.549C171.892 137.319 217.187 194.099 217.187 281.16Z" stroke="#EE2F29" stroke-miterlimit="10"/>
    <path d="M204.038 281.16C204.038 365.95 158.34 425 107.404 425H51.293V137.319H107.535C159.746 137.319 204.038 194.099 204.038 281.16Z" stroke="#EE2F29" stroke-miterlimit="10"/>
    <path d="M190.89 281.16C190.89 365.95 146.304 425 100.375 425H51.2773V137.319H100.523C147.601 137.319 190.89 194.099 190.89 281.16Z" stroke="#EE2F29" stroke-miterlimit="10"/>
    <path d="M177.741 281.16C177.741 365.95 134.267 425 93.3435 425H51.2598V137.319H93.5082C135.455 137.319 177.741 194.099 177.741 281.16Z" stroke="#EE2F29" stroke-miterlimit="10"/>
    <path d="M164.591 281.16C164.591 365.95 122.229 425 86.3124 425H51.2422V137.319H86.4927C123.308 137.319 164.591 194.099 164.591 281.16Z" stroke="#EE2F29" stroke-miterlimit="10"/>
    <path d="M151.442 281.16C151.442 365.95 110.192 425 79.2814 425H51.2266V137.319H79.4801C111.163 137.319 151.442 194.099 151.442 281.16Z" stroke="#EE2F29" stroke-miterlimit="10"/>
    <path d="M138.294 281.16C138.294 365.95 98.1564 425 72.2523 425H51.2109V137.319H72.4675C99.018 137.319 138.294 194.099 138.294 281.16Z" stroke="#EE2F29" stroke-miterlimit="10"/>
    <path d="M125.144 281.16C125.144 365.95 86.1182 425 65.2213 425H51.1934V137.319H65.4519C86.8713 137.319 125.144 194.099 125.144 281.16Z" stroke="#EE2F29" stroke-miterlimit="10"/>
    <path d="M111.995 281.16C111.995 365.95 74.081 425 58.1912 425H51.1777V137.319H58.4393C74.7265 137.319 111.995 194.099 111.995 281.16Z" stroke="#EE2F29" stroke-miterlimit="10"/>
    <path d="M98.8451 281.16C98.8451 365.95 62.0438 425 51.1602 425V137.319H51.4248C62.5798 137.319 98.8451 194.099 98.8451 281.16Z" stroke="#EE2F29" stroke-miterlimit="10"/>
    <path d="M392.75 281.56C392.946 281.364 392.946 281.048 392.75 280.853L389.568 277.671C389.373 277.475 389.057 277.475 388.861 277.671C388.666 277.866 388.666 278.182 388.861 278.378L391.69 281.206L388.861 284.034C388.666 284.23 388.666 284.546 388.861 284.742C389.057 284.937 389.373 284.937 389.568 284.742L392.75 281.56ZM309.451 281.706L392.397 281.706L392.397 280.706L309.451 280.706L309.451 281.706Z" fill="#EE2F29"/>
    <path d="M50.1209 360.354C50.3162 360.158 50.3162 359.842 50.1209 359.646L46.939 356.464C46.7437 356.269 46.4271 356.269 46.2318 356.464C46.0366 356.66 46.0366 356.976 46.2318 357.172L49.0603 360L46.2318 362.828C46.0366 363.024 46.0366 363.34 46.2318 363.536C46.4271 363.731 46.7437 363.731 46.939 363.536L50.1209 360.354ZM0 360.5H49.7674V359.5H0V360.5Z" fill="#EE2F29"/>
    <path d="M50.1209 207.354C50.3162 207.158 50.3162 206.842 50.1209 206.646L46.939 203.464C46.7437 203.269 46.4271 203.269 46.2318 203.464C46.0366 203.66 46.0366 203.976 46.2318 204.172L49.0603 207L46.2318 209.828C46.0366 210.024 46.0366 210.34 46.2318 210.536C46.4271 210.731 46.7437 210.731 46.939 210.536L50.1209 207.354ZM0 207.5H49.7674V206.5H0V207.5Z" fill="#EE2F29"/>
    <path d="M736.646 135.354C736.842 135.549 737.158 135.549 737.354 135.354L740.536 132.172C740.731 131.976 740.731 131.66 740.536 131.464C740.34 131.269 740.024 131.269 739.828 131.464L737 134.293L734.172 131.464C733.976 131.269 733.66 131.269 733.464 131.464C733.269 131.66 733.269 131.976 733.464 132.172L736.646 135.354ZM736.5 1.13964e-08L736.5 135L737.5 135L737.5 -1.13964e-08L736.5 1.13964e-08Z" fill="#47AEB0"/>
    <path d="M769.708 319.631V421.457H703.425V319.631L592.545 135.197H881L769.709 319.631H769.708Z" stroke="#47AEB0" stroke-miterlimit="10"/>
    <path d="M766.22 313.965V417.941H706.942V313.965L602.84 140.683H870.705L766.22 313.965Z" stroke="#47AEB0" stroke-miterlimit="10"/>
    <path d="M762.734 308.297V414.424H710.461V308.297L613.137 146.168H860.411L762.735 308.297H762.734Z" stroke="#47AEB0" stroke-miterlimit="10"/>
    <path d="M759.244 302.632V410.909H713.976V302.632L623.43 151.654H850.114L759.244 302.632Z" stroke="#47AEB0" stroke-miterlimit="10"/>
    <path d="M755.758 296.965V407.393H717.495V296.965L633.727 157.139H839.82L755.758 296.965Z" stroke="#47AEB0" stroke-miterlimit="10"/>
    <path d="M752.268 291.299V403.878H721.009V291.299L644.02 162.625H829.523L752.269 291.299L752.268 291.299Z" stroke="#47AEB0" stroke-miterlimit="10"/>
    <path d="M748.782 285.632V400.361H724.529V285.632L654.316 168.11H819.229L748.782 285.632Z" stroke="#47AEB0" stroke-miterlimit="10"/>
    <path d="M745.294 279.966V396.845H728.046V279.966L664.611 173.596H808.934L745.294 279.966Z" stroke="#47AEB0" stroke-miterlimit="10"/>
    <path d="M741.806 274.3V393.329H731.562V274.3L674.906 179.081H798.637L741.806 274.3Z" stroke="#47AEB0" stroke-miterlimit="10"/>
    <path d="M738.318 268.633V389.813H735.079V268.633L685.201 184.567H788.342L738.317 268.633H738.318Z" stroke="#47AEB0" stroke-miterlimit="10"/>
    <path d="M1037.35 360.354C1037.55 360.158 1037.55 359.842 1037.35 359.646L1034.17 356.464C1033.98 356.269 1033.66 356.269 1033.46 356.464C1033.27 356.66 1033.27 356.976 1033.46 357.172L1036.29 360L1033.46 362.828C1033.27 363.024 1033.27 363.34 1033.46 363.536C1033.66 363.731 1033.98 363.731 1034.17 363.536L1037.35 360.354ZM770 360.5L1037 360.5L1037 359.5L770 359.5L770 360.5Z" fill="#EE2F29"/>
    <path d="M1037.35 207.354C1037.55 207.158 1037.55 206.842 1037.35 206.646L1034.17 203.464C1033.98 203.269 1033.66 203.269 1033.46 203.464C1033.27 203.66 1033.27 203.976 1033.46 204.172L1036.29 207L1033.46 209.828C1033.27 210.024 1033.27 210.34 1033.46 210.536C1033.66 210.731 1033.98 210.731 1034.17 210.536L1037.35 207.354ZM838 207.5H1037V206.5H838V207.5Z" fill="#EE2F29"/>
  </g>
  <defs>
    <clipPath id="clip0_465_6732">
      <rect width="889" height="425" fill="white"/>
    </clipPath>
  </defs>
</svg>