<svg xmlns="http://www.w3.org/2000/svg" width="113" height="38" viewBox="0 0 113 38" fill="none">
    <path d="M14.3184 0.487192H0V37.5128H14.3185C25.9281 37.5128 32.8937 29.9128 32.8937 19C32.8937 7.79492 26.2182 0.487192 14.3185 0.487192H14.3184ZM14.1249 30.4974H8.32021V7.50252H14.1249C20.8005 7.50252 24.38 11.7897 24.38 19C24.38 26.2102 20.8004 30.4974 14.1249 30.4974ZM55.8228 0C44.8904 0 37.5377 7.59999 37.5377 19C37.5377 30.4975 44.7937 38 55.8228 38C66.755 38 74.1078 30.4 74.1078 19C74.1078 7.50251 66.8518 0 55.8228 0ZM55.8228 30.7897C49.9212 30.7897 46.0514 26.1128 46.0514 19C46.0514 11.8872 49.9212 7.21026 55.8228 7.21026C61.7243 7.21026 65.5941 11.8872 65.5941 19C65.5941 26.1129 61.7243 30.7897 55.8228 30.7897ZM104.68 0.487192V22.3128C104.68 27.5743 101.777 30.5949 96.5531 30.5949C91.3287 30.5949 88.4264 27.5743 88.4264 22.3128V0.487192H80.1062V22.6051C80.1062 31.9589 86.2979 38 96.5531 38C106.808 38 113 31.959 113 22.6051V0.487192H104.68Z" fill="white"/>
</svg>