<svg width="406" height="85" viewBox="0 0 406 85" fill="none" xmlns="http://www.w3.org/2000/svg">
<g clip-path="url(#clip0_876_3123)">
<mask id="mask0_876_3123" style="mask-type:luminance" maskUnits="userSpaceOnUse" x="0" y="0" width="85" height="85">
<path d="M0 0H84.9534V85H0V0Z" fill="white"/>
</mask>
<g mask="url(#mask0_876_3123)">
<path d="M0 0H84.9534V85H0V0Z" fill="url(#paint0_linear_876_3123)"/>
</g>
<mask id="mask1_876_3123" style="mask-type:luminance" maskUnits="userSpaceOnUse" x="2" y="1" width="81" height="81">
<path d="M7.48206 1.97656C5.86202 1.97656 4.80109 3.42947 4.55019 5.34889C4.55019 5.34889 2.46191 16.4167 2.46191 39.7462C2.46191 63.0856 4.55019 78.1583 4.55019 78.1583C4.73985 80.0026 5.86202 81.0463 7.48206 81.0463H79.8841C81.5021 81.0463 82.7883 80.1627 82.8179 78.1583C82.8179 78.1583 82.0118 60.6701 82.0118 43.1996C82.0118 25.7291 82.8179 5.4497 82.8179 5.4497C82.8555 3.66075 81.5021 1.97656 79.8841 1.97656H7.48206Z" fill="white"/>
</mask>
<g mask="url(#mask1_876_3123)">
<path d="M2.46191 1.97656H82.8555V81.0463H2.46191V1.97656Z" fill="url(#paint1_linear_876_3123)"/>
</g>
<mask id="mask2_876_3123" style="mask-type:luminance" maskUnits="userSpaceOnUse" x="41" y="10" width="35" height="29">
<path d="M48.1426 10.7354C50.4284 11.6942 59.6073 16.6597 60.7315 18.2471C56.1124 18.8579 47.056 21.2161 42.1761 23.5922L41.8916 24.1674C47.2713 22.9833 54.7907 22.3626 59.9768 22.0819C58.0406 24.9225 56.7584 26.2766 53.8127 29.4908L53.5401 30.1154C59.151 26.7431 60.7315 26.5 65.9057 23.4696C67.8597 26.3616 68.3279 33.0232 68.405 38.3051C70.0862 34.9565 72.1291 22.333 71.2795 20.0538C74.7113 17.6995 75.1755 15.7999 75.1755 15.7999C72.0303 16.0726 70.2957 16.124 68.5986 16.6597C64.5801 14.1967 55.3656 10.941 48.4093 10.1562L48.1426 10.7354V10.7354Z" fill="white"/>
</mask>
<g mask="url(#mask2_876_3123)">
<path d="M41.8916 10.1562H75.1755V38.3051H41.8916V10.1562Z" fill="url(#paint2_linear_876_3123)"/>
</g>
<mask id="mask3_876_3123" style="mask-type:luminance" maskUnits="userSpaceOnUse" x="9" y="49" width="20" height="24">
<path d="M13.8787 49.9524C13.4243 54.1608 13.2405 57.1655 13.8431 60.5299C12.1421 61.0004 10.6504 61.0656 9.27934 61.6487L9.01855 62.226C11.1997 63.5741 12.9758 64.604 15.4414 65.7564C16.7612 68.593 18.1283 70.5046 20.3371 72.6908L20.6058 72.1057C20.2087 70.4947 19.693 69.1624 19.8867 67.3971C22.6289 68.1977 24.9839 68.6207 28.1074 68.7136L28.3701 68.1305C25.6259 67.065 22.8778 66.2229 20.6532 64.1276C21.3546 62.1825 22.1547 60.6564 23.4606 58.7311L23.7352 58.138C21.3763 58.4939 19.2347 59.3577 17.1938 59.755C15.5837 56.9243 14.9594 53.0519 14.1474 49.3633L13.8787 49.9524V49.9524Z" fill="white"/>
</mask>
<g mask="url(#mask3_876_3123)">
<path d="M9.01855 49.3633H28.3701V72.6908H9.01855V49.3633Z" fill="url(#paint3_linear_876_3123)"/>
</g>
<mask id="mask4_876_3123" style="mask-type:luminance" maskUnits="userSpaceOnUse" x="14" y="26" width="34" height="21">
<path d="M27.8866 30.8631C27.8866 30.8631 26.1184 30.5982 23.1945 30.6872C20.7249 30.7999 17.0403 31.0193 15.2484 31.5471L14.9856 32.1243C17.8365 32.2449 21.7384 33.0099 23.23 34.5102C23.23 34.5102 18.9053 38.4143 14.6221 46.9538C14.6221 46.9538 22.3904 39.6616 25.7569 37.8549C25.7569 37.8549 27.5192 43.7317 28.7441 46.6692L29.0128 46.09C29.3526 44.2022 30.1942 39.0883 31.6285 35.9532C31.6285 35.9532 32.1363 35.6666 34.6197 35.4274C37.111 35.204 40.6316 35.121 47.3173 36.2952L47.5899 35.8149C46.0607 34.9135 39.9797 31.6281 33.537 31.6281H33.7484C34.6316 27.6746 35.7359 26.8721 35.7359 26.8721C34.3708 27.0658 30.4846 28.7895 27.8866 30.8631" fill="white"/>
</mask>
<g mask="url(#mask4_876_3123)">
<path d="M14.6221 26.8721H47.5899V46.9538H14.6221V26.8721Z" fill="url(#paint4_linear_876_3123)"/>
</g>
<mask id="mask5_876_3123" style="mask-type:luminance" maskUnits="userSpaceOnUse" x="32" y="62" width="19" height="13">
<path d="M44.1599 66.802C44.0607 65.6723 43.985 64.5407 43.9327 63.4079C42.6819 65.1222 41.3487 66.7747 39.9379 68.3597C38.3613 68.7985 36.5595 68.7807 34.9178 68.7629C34.3001 68.7513 33.6822 68.7526 33.0646 68.7669L32.7959 69.352C34.2586 70.0975 35.8178 70.6357 37.4288 70.9512C36.1308 72.1353 34.3942 73.0367 33.1772 73.859L32.9065 74.4342C35.5203 73.8155 38.96 72.7065 41.5244 71.1904C42.6928 71.2549 43.8647 71.1853 45.0173 70.9828C45.0173 70.9828 45.2919 70.3859 45.2919 70.4017C45.122 69.8086 44.6005 69.4489 44.4444 68.6226C46.8468 66.7565 48.5854 65.0565 50.5966 63.0363L50.8752 62.4492C48.8896 63.8171 46.4813 65.701 44.1599 66.802" fill="white"/>
</mask>
<g mask="url(#mask5_876_3123)">
<path d="M32.7959 62.4473H50.8752V74.4323H32.7959V62.4473Z" fill="url(#paint5_linear_876_3123)"/>
</g>
<mask id="mask6_876_3123" style="mask-type:luminance" maskUnits="userSpaceOnUse" x="0" y="0" width="406" height="85">
<path d="M0 0H406V85H0V0Z" fill="white"/>
</mask>
<g mask="url(#mask6_876_3123)">
<path d="M66.1704 22.8806C61.008 25.9168 59.4275 26.1718 53.8126 29.5343C57.0824 25.986 58.2184 24.4758 60.2414 21.5047C55.0672 21.7795 47.5458 22.4022 42.176 23.5922C46.8504 21.0956 56.1163 18.3182 61.008 17.656C59.874 16.0904 50.6931 11.115 48.4092 10.1562C55.6777 10.7216 64.5622 13.4396 68.8691 16.0746C70.5643 15.5449 72.3246 15.5192 75.4777 15.2385C74.6756 16.6182 74.64 17.4168 71.5462 19.4687C72.4036 21.7637 70.3568 34.3753 68.6656 37.716C68.6044 32.4401 68.1421 25.7765 66.1704 22.8806ZM28.3701 68.1302C25.4046 67.0292 23.267 65.7502 20.9159 63.5501C21.6193 61.605 22.4234 60.0868 23.7332 58.1378C21.3229 58.4995 19.5448 58.7703 17.4664 59.1657C15.7753 56.2045 15.0087 53.3461 14.1473 49.3669C13.685 53.5833 13.5112 56.5939 14.1058 59.9504C12.1973 60.4822 10.848 60.9447 9.2793 61.6524C11.4782 62.9986 13.2543 64.0344 15.7081 65.1809C17.0278 68.0116 18.393 69.9231 20.6058 72.1074C20.0862 70.2473 19.9498 68.7707 20.1632 66.8196C22.9074 67.6143 25.2565 68.0353 28.3701 68.1302ZM36.0949 26.1797C35.1703 27.3796 34.0995 29.6173 33.8091 30.6571C41.4549 31.6949 47.5893 35.6226 47.5893 35.6226C40.9037 34.4366 37.3811 34.5849 34.8858 34.8082C32.4083 35.0435 31.8986 35.334 31.8986 35.334C30.0948 39.2875 29.0122 46.0776 29.0122 46.0776C27.7972 43.1422 26.0388 37.2653 26.0388 37.2653C22.6664 39.0721 14.906 46.3722 14.906 46.3722C19.1714 37.8247 23.5021 33.9365 23.5021 33.9365C22.0124 32.4262 18.1065 31.6731 15.2497 31.5466C16.7315 30.9417 20.5366 30.2321 23.4606 30.0976C26.3865 30.0146 28.1567 30.1807 28.1567 30.1807C30.7666 28.1189 34.7297 26.3814 36.0949 26.1797ZM44.205 62.8306C42.9531 64.5452 41.6158 66.1959 40.1984 67.7764C37.8816 68.4543 35.4779 68.788 33.0643 68.7667C34.5275 69.5158 36.0883 70.0568 37.7011 70.3738C36.2986 71.666 34.7846 72.8315 33.1769 73.8568C35.7926 73.2381 39.2283 72.1272 41.7888 70.613C43.1243 70.6644 44.3749 70.5774 45.2916 70.3975C45.0495 69.6229 44.8555 68.8339 44.7108 68.0353C47.1211 66.1693 48.8695 64.4772 50.8748 62.4471C48.8444 63.8951 46.6874 65.1568 44.4302 66.2167C44.3257 65.0901 44.2506 63.961 44.205 62.8306Z" fill="white"/>
</g>
<mask id="mask7_876_3123" style="mask-type:luminance" maskUnits="userSpaceOnUse" x="0" y="0" width="406" height="85">
<path d="M0 0H406V85H0V0Z" fill="white"/>
</mask>
<g mask="url(#mask7_876_3123)">
<path d="M114.448 57.326C117.229 57.326 120.26 58.2749 120.26 60.8348C120.26 62.2244 119.065 63.4539 117.285 64.0667C119.648 64.9286 121.011 66.7393 121.011 68.5184C121.011 71.6357 117.229 73.14 113.667 73.14H105.522C105.715 71.1632 105.773 67.9748 105.773 64.8574C105.773 62.8036 105.743 59.3028 105.549 57.326H114.448ZM112.168 59.117C111.445 59.117 110.722 59.1703 110.362 59.2257C110.278 61.0932 110.24 62.9624 110.247 64.8317C110.247 67.532 110.247 67.2098 110.362 71.1632H112.529C115.088 71.1632 116.313 69.8685 116.313 68.3108C116.313 66.5851 114.726 65.233 112.64 65.233H111.389L112.251 63.2563H113.169C114.224 63.2563 115.643 62.6217 115.643 61.2558C115.643 59.8088 114.337 59.117 112.168 59.117ZM137.529 57.326C137.391 59.3028 137.306 63.3828 137.306 64.8555C137.306 66.2214 137.336 69.1865 137.529 73.14H133.997L127.856 64.3079C127.384 63.6358 128.418 62.5387 126.442 61.7856V66.5416C126.442 68.3523 127.434 71.1632 127.602 73.14H123.569C123.82 69.1865 123.848 66.1641 123.848 64.8555C123.848 63.4401 123.763 59.3028 123.654 57.326H128.242L133.461 65.067C133.712 65.4544 132.369 65.5987 134.345 65.9328V57.326H137.529ZM148.457 57.326C151.711 57.326 155.632 58.1938 155.632 61.6709C155.632 64.7309 152.851 66.2372 147.206 66.2372C146.872 66.2372 145.954 66.6859 145.707 66.6563C145.815 68.7437 145.79 71.1632 145.926 73.14H141.004C141.2 69.1865 141.255 67.2789 141.255 64.8555C141.255 62.7146 141.2 59.3028 141.004 57.326H148.457ZM145.76 59.3087C145.76 60.2813 145.707 61.2874 145.707 62.26C145.707 62.9815 145.732 63.537 145.76 64.0707C145.926 64.0944 146.706 64.0944 147.206 64.0944C148.791 64.0944 150.989 63.6516 150.989 61.6195C150.989 59.6448 148.735 59.2791 147.038 59.2791C146.817 59.2791 145.983 59.2791 145.76 59.3087ZM171.149 57.326C174.403 57.326 178.325 58.1938 178.325 61.6709C178.325 64.7309 175.543 66.2372 169.897 66.2372C169.563 66.2372 168.646 66.6859 168.397 66.6563C168.508 68.7437 168.48 71.1632 168.618 73.14H163.697C163.893 69.1865 163.946 67.2789 163.946 64.8555C163.946 62.7146 163.893 59.3028 163.697 57.326H171.149ZM168.452 59.3087C168.452 60.2813 168.397 61.2874 168.397 62.26C168.397 62.9815 168.425 63.537 168.452 64.0707C168.618 64.0944 169.399 64.0944 169.897 64.0944C171.483 64.0944 173.68 63.6516 173.68 61.6195C173.68 59.6448 171.428 59.2791 169.731 59.2791C169.509 59.2791 168.674 59.2791 168.452 59.3087ZM187.073 57.326C187.628 59.3028 192.577 69.1865 193.717 73.14H188.796C188.602 71.1632 188.213 71.2878 187.488 69.3941C186.739 69.3703 185.959 69.1391 184.931 69.1391C183.93 69.1391 183.205 69.5107 182.4 69.5384C181.954 70.7659 181.565 71.1632 181.203 73.14H176.922C177.756 71.1632 182.677 59.3028 183.566 57.326H187.073ZM186.654 66.6582C186.071 65.2093 185.263 63.4006 184.874 62.1493C184.457 63.4282 183.566 65.403 183.124 66.6582C183.679 66.6839 184.429 66.7116 184.931 66.7116C185.625 66.7116 185.988 66.682 186.654 66.6582ZM202.924 57.326C206.203 57.326 210.125 58.4449 210.125 61.9239C210.125 63.7841 208.734 65.5552 206.565 66.4171C207.009 67.1979 210.654 71.1613 211.375 73.138H206.012C205.065 71.1613 203.258 67.7534 201.477 65.1085C203.617 65.3892 205.482 64.128 205.482 62.0702C205.482 60.0955 203.2 59.3937 202.088 59.3937C201.588 59.3937 200.642 59.3364 200.308 59.3641C200.238 61.1858 200.201 63.0087 200.197 64.8317C200.197 66.1403 200.197 69.1845 200.446 73.138H195.442C195.693 69.1845 195.748 67.8641 195.748 64.8535C195.748 62.3272 195.72 59.3008 195.497 57.3241L202.924 57.326ZM218.271 57.326C218.158 59.3028 218.077 63.4401 218.077 64.8851C218.077 66.2214 218.077 69.1865 218.271 73.14H213.322C213.57 69.1865 213.598 66.1641 213.598 64.8851C213.598 63.4678 213.515 59.3028 213.405 57.326H218.271ZM230.425 57.326C233.205 57.326 236.235 58.2749 236.235 60.8348C236.235 62.2244 235.042 63.4539 233.26 64.0667C235.623 64.9286 236.986 66.7393 236.986 68.5184C236.986 71.6357 233.205 73.14 229.644 73.14H221.497C221.692 71.1632 221.748 67.9748 221.748 64.8574C221.748 62.8036 221.72 59.3028 221.526 57.326H230.425ZM228.145 59.117C227.422 59.117 226.699 59.1703 226.339 59.2257C226.256 61.0932 226.219 62.9624 226.227 64.8317C226.227 67.532 226.227 67.2098 226.339 71.1632H228.506C231.067 71.1632 232.29 69.8685 232.29 68.3108C232.29 66.5851 230.703 65.233 228.619 65.233H227.366L228.23 63.2563H229.149C230.206 63.2563 231.622 62.6217 231.622 61.2558C231.618 59.8088 230.312 59.117 228.145 59.117ZM247.694 57.326C248.247 59.3028 253.2 69.1865 254.338 73.14H249.419C249.223 71.1632 248.832 71.2878 248.111 69.3941C247.36 69.3703 246.582 69.1391 245.552 69.1391C244.551 69.1391 243.828 69.5107 243.022 69.5384C242.577 70.7639 242.188 71.1613 241.826 73.138H237.545C238.379 71.1613 243.3 59.3008 244.189 57.3241L247.694 57.326ZM247.277 66.6582C246.69 65.2093 245.884 63.4006 245.497 62.1493C245.08 63.4282 244.189 65.403 243.745 66.6582C244.298 66.6839 245.051 66.7116 245.552 66.7116C246.248 66.7116 246.607 66.682 247.277 66.6582ZM261.917 56.8319C263.835 56.8319 266.714 57.1106 266.714 57.4723V61.2894C264.738 60.3406 263.614 59.5321 261.472 59.5321C259.777 59.5321 259.742 60.2022 259.742 60.6984C259.742 63.2325 268.318 63.2582 268.318 67.7969C268.318 70.7442 265.177 72.6082 260.589 72.6082C258.533 72.6082 256.837 72.1912 254.862 71.7227V68.0756C258.813 69.5502 260.079 70.0207 261.526 70.0207C262.695 70.0207 263.758 69.4929 263.758 68.4927C263.758 65.6284 255.275 65.9051 255.275 61.0364C255.273 58.3638 257.967 56.8319 261.917 56.8319ZM292.593 65.233C292.508 67.2098 292.425 69.6728 292.37 71.4538C290.757 72.286 288.225 72.6814 285.779 72.6814C280.219 72.6814 276.657 69.141 276.657 64.8258C276.657 60.2931 280.387 56.8496 286.476 56.8496C287.867 56.8496 289.953 57.0631 291.425 57.4249L290.343 60.3702C289.313 59.7298 287.589 59.198 286.421 59.198C282.918 59.198 281.666 62.3134 281.666 64.8179C281.666 69.0165 283.92 70.3824 286.449 70.3824C286.755 70.3824 287.729 70.505 288.035 70.422C288.035 68.6132 288.005 65.231 287.869 65.231L292.593 65.233ZM302.963 57.326C306.245 57.326 310.166 58.4449 310.166 61.9239C310.166 63.7841 308.776 65.5552 306.604 66.4171C307.053 67.1979 310.694 71.1613 311.417 73.138H306.051C305.105 71.1613 303.297 67.7534 301.517 65.1085C303.661 65.3892 305.52 64.128 305.52 62.0702C305.52 60.0955 303.242 59.3937 302.127 59.3937C301.628 59.3937 300.683 59.3364 300.347 59.3641C300.264 61.2024 300.239 63.8335 300.239 64.8317C300.239 66.1403 300.239 69.1845 300.486 73.138H295.483C295.732 69.1845 295.788 67.8641 295.788 64.8535C295.788 62.3272 295.758 59.3008 295.537 57.3241L302.963 57.326ZM320.373 72.6359C315.7 72.6359 312.195 69.4356 312.195 64.7369C312.195 60.0045 315.698 56.8319 320.373 56.8319C325.015 56.8319 328.518 60.0045 328.518 64.7369C328.518 69.4356 325.015 72.6359 320.373 72.6359ZM320.373 58.7552C318.201 58.7552 316.84 60.8684 316.84 64.7369C316.84 68.5994 318.201 70.6612 320.373 70.6612C322.514 70.6612 323.85 68.5994 323.85 64.7369C323.85 60.8684 322.514 58.7552 320.373 58.7552ZM335.473 57.326C335.388 57.326 335.862 59.2553 335.862 60.3109V67.4608C335.862 69.4118 336.516 70.5505 338.436 70.5505C340.104 70.5505 341.789 69.8823 341.789 66.8184V59.5598C341.789 58.0337 341.17 57.3241 341.062 57.3241H345.205C345.039 59.3008 345.74 60.9751 345.74 63.3966V67.6525C345.74 71.102 342.522 72.6063 337.739 72.6063C333.402 72.6063 329.935 71.6891 329.935 67.4331V61.9516C329.935 60.56 330.773 57.3241 330.607 57.3241L335.473 57.326ZM355.577 57.326C358.831 57.326 362.754 58.1938 362.754 61.6709C362.754 64.7309 359.973 66.2372 354.326 66.2372C353.99 66.2372 353.074 66.6859 352.825 66.6563C352.935 68.7437 352.908 71.1632 353.048 73.14H348.125C348.32 69.1865 348.374 67.2789 348.374 64.8555C348.374 62.7146 348.32 59.3028 348.125 57.326H355.577ZM352.88 59.3087C352.88 60.2813 352.825 61.2874 352.825 62.26C352.825 62.9815 352.852 63.537 352.88 64.0707C353.048 64.0944 353.826 64.0944 354.324 64.0944C355.909 64.0944 358.106 63.6516 358.106 61.6195C358.106 59.6448 355.853 59.2791 354.156 59.2791C353.935 59.2791 353.101 59.2791 352.88 59.3087ZM113.351 13.8377C113.185 15.8144 112.612 17.2337 112.612 19.1887V34.465C112.612 37.2028 113.893 39.4859 118.288 39.4859C122.066 39.4859 124.466 38.2821 124.466 32.0158V17.6923C124.466 14.6205 125.176 13.8377 125.051 13.8377H131.401C131.067 15.8144 130.393 20.4321 130.393 25.2889V33.7158C130.393 40.2766 127.295 43.0144 118.415 43.0144C110.366 43.0144 106.685 40.8973 106.685 32.2649V22.4266C106.685 19.6019 105.759 15.8144 105.508 13.8377H113.351ZM164.252 13.8377C162.717 15.8144 154.751 23.6898 152.635 25.8088C154.295 28.0485 163.918 41.5121 165.663 41.5121H156.494C154.583 39.5353 149.024 31.0512 146.368 27.6887C146.368 31.1757 146.41 39.5353 146.785 41.5121H138.734C139.149 37.5586 139.191 29.5409 139.191 27.0107C139.191 24.1879 139.027 15.8144 138.776 13.8377H146.742C146.534 15.8144 146.368 23.5119 146.368 26.8308C151.556 21.6003 154.046 17.7912 157.074 13.8377H164.252ZM183.827 13.8377C189.926 13.8377 197.186 15.3084 197.186 22.0332C197.186 25.8108 194.987 27.7678 190.631 29.0962C191.253 30.3395 198.265 41.5121 199.427 41.5121H190.754C188.847 39.5353 184.53 31.0551 181.377 26.3228C181.918 26.4473 182.707 26.7596 183.619 26.7596C186.15 26.7596 189.718 25.0498 189.718 21.6853C189.718 17.4946 184.655 16.8048 182.124 16.8048C180.84 16.8048 179.595 16.9174 178.971 16.9985C178.824 20.2384 178.741 23.4809 178.722 26.7241C178.722 29.2958 178.722 37.5586 179.178 41.5121H171.092C171.505 37.5586 171.59 32.9884 171.59 26.9712C171.59 21.9048 171.548 15.8144 171.173 13.8377H183.827ZM214.778 12.7939C218.348 12.7939 221.274 13.3336 223.249 13.9148V20.3075C221.274 18.8962 218.431 17.5678 213.823 17.5678C209.672 17.5678 209.651 19.1037 209.651 20.183C209.651 25.455 226.608 24.7493 226.608 33.9649C226.608 39.652 221.627 43.0144 213.079 43.0144C209.135 43.0144 205.466 42.3087 203.491 41.52V35.1707C209.418 37.6199 211.929 38.4481 214.876 38.4481C218.156 38.4481 219.845 37.4934 219.845 35.3367C219.845 29.6496 202.768 30.4779 202.768 20.8057C202.77 15.6998 207.434 12.7939 214.778 12.7939ZM241.358 13.8377C241.109 15.8144 240.943 24.1464 240.943 27.0107C240.943 29.5409 240.985 37.5586 241.358 41.5121H233.311C233.726 37.5586 233.766 29.5409 233.766 27.0107C233.766 24.1879 233.6 15.8144 233.392 13.8377H241.358ZM263.883 13.8377C269.069 13.8377 274.545 15.5159 274.545 20.3313C274.545 23.2391 272.097 25.6962 268.405 26.6509C273.425 28.1869 276.041 30.3672 276.041 34.0617C276.041 39.9564 269.069 41.5121 262.43 41.5121H248.947C249.32 39.5353 249.403 32.9073 249.403 26.9712C249.403 22.9841 249.362 17.7912 248.986 13.8377H263.883ZM259.404 16.613C258.45 16.613 257.371 16.696 256.831 16.7791C256.666 20.6396 256.581 22.7152 256.581 27.2005C256.581 32.4705 256.581 34.6725 256.786 38.9482C257.74 38.9898 259.277 38.9898 260.149 38.9898C265.752 38.9898 268.529 37.7246 268.529 34.4848C268.529 30.6677 263.924 29.6516 260.439 29.6516H258.821L260.439 25.6981H261.435C263.798 25.6981 267.158 24.1879 267.158 21.2801C267.162 18.2082 265.088 16.613 259.404 16.613ZM296.198 13.8377C301.385 13.8377 306.859 15.5159 306.859 20.3313C306.859 23.2391 304.411 25.6962 300.721 26.6509C305.741 28.1869 308.353 30.3672 308.353 34.0617C308.353 39.9564 301.385 41.5121 294.742 41.5121H281.261C281.634 39.5353 281.717 32.9073 281.717 26.9712C281.717 22.9841 281.675 17.7912 281.3 13.8377H296.198ZM291.716 16.613C290.763 16.613 289.685 16.696 289.143 16.7791C288.977 20.6396 288.892 22.7152 288.892 27.2005C288.892 32.4705 288.892 34.6725 289.098 38.9482C290.052 38.9898 291.591 38.9898 292.459 38.9898C298.064 38.9898 300.841 37.7246 300.841 34.4848C300.841 30.6677 296.236 29.6516 292.751 29.6516H291.133L292.751 25.6981H293.747C296.11 25.6981 299.47 24.1879 299.47 21.2801C299.474 18.2082 297.4 16.613 291.716 16.613ZM328.842 13.8377C329.963 15.8144 339.505 37.5586 341.745 41.5121H333.736C333.282 41.5121 332.327 38.2366 331.081 35.1232C329.421 35.0817 327.722 35.2695 325.357 35.2695C323.156 35.2695 321.497 34.9671 319.588 35.0086C318.676 37.4578 317.929 39.5353 317.265 41.5121H310.295C311.954 39.5353 321.706 17.7912 323.239 13.8377H328.842ZM329.548 31.7667C328.176 28.4816 326.792 25.2015 325.397 21.9265C323.886 25.1741 322.447 28.455 321.082 31.7667C322.327 31.8063 324.028 31.8478 325.397 31.8478C326.726 31.8478 328.137 31.8063 329.548 31.7667ZM371.694 13.8377C371.406 15.8144 371.24 24.1464 371.24 26.9712C371.24 29.5409 371.279 37.5586 371.738 41.5121H366.303L353.852 23.666C352.775 22.0471 352.485 21.4481 352.278 20.7009C352.278 25.1427 352.236 26.9969 352.236 30.9405C352.236 34.5085 352.319 39.5353 352.607 41.5121H345.845C346.26 37.5586 346.303 29.5409 346.303 26.9712C346.303 24.1464 346.137 15.8144 345.93 13.8377H353.562L362.857 27.2578C364.849 30.1656 365.264 29.6516 365.593 31.6284H365.637C365.386 27.6749 365.305 24.518 365.139 20.9065L364.849 13.8377H371.694ZM404.589 13.8377C403.052 15.8144 395.086 23.6898 392.97 25.8088C394.632 28.0485 404.255 41.5121 406 41.5121H396.831C394.92 39.5353 389.361 31.0512 386.703 27.6887C386.703 31.1757 386.745 39.5353 387.12 41.5121H379.071C379.486 37.5586 379.528 29.5409 379.528 27.0107C379.528 24.1879 379.364 15.8144 379.113 13.8377H387.077C386.871 15.8144 386.703 23.5119 386.703 26.8308C391.891 21.6003 394.383 17.7912 397.41 13.8377H404.589Z" fill="#231F20"/>
</g>
</g>
<defs>
<linearGradient id="paint0_linear_876_3123" x1="42.5671" y1="-2.10128" x2="42.5671" y2="87.6247" gradientUnits="userSpaceOnUse">
<stop stop-color="#008053"/>
<stop offset="0.6" stop-color="#7FC4A7"/>
<stop offset="1" stop-color="#00A06D"/>
</linearGradient>
<linearGradient id="paint1_linear_876_3123" x1="42.6626" y1="-20.1393" x2="42.6626" y2="78.5952" gradientUnits="userSpaceOnUse">
<stop stop-color="#00A06D"/>
<stop offset="0.3" stop-color="#7FC4A7"/>
<stop offset="0.55" stop-color="#00A06D"/>
<stop offset="0.835" stop-color="#008053"/>
<stop offset="0.888" stop-color="#00885C"/>
<stop offset="0.973" stop-color="#009E74"/>
<stop offset="1" stop-color="#00A67D"/>
</linearGradient>
<linearGradient id="paint2_linear_876_3123" x1="58.5332" y1="73.8806" x2="58.5332" y2="9.63459" gradientUnits="userSpaceOnUse">
<stop stop-color="#00AC80"/>
<stop offset="1" stop-color="#00A06D"/>
</linearGradient>
<linearGradient id="paint3_linear_876_3123" x1="18.7058" y1="73.8808" x2="18.7058" y2="9.61511" gradientUnits="userSpaceOnUse">
<stop stop-color="#00AC80"/>
<stop offset="1" stop-color="#00A06D"/>
</linearGradient>
<linearGradient id="paint4_linear_876_3123" x1="31.0513" y1="73.6023" x2="31.0513" y2="9.98277" gradientUnits="userSpaceOnUse">
<stop stop-color="#00AC80"/>
<stop offset="1" stop-color="#00A06D"/>
</linearGradient>
<linearGradient id="paint5_linear_876_3123" x1="41.8612" y1="73.8808" x2="41.8612" y2="9.63558" gradientUnits="userSpaceOnUse">
<stop stop-color="#00AC80"/>
<stop offset="1" stop-color="#00A06D"/>
</linearGradient>
<clipPath id="clip0_876_3123">
<rect width="406" height="85" fill="white"/>
</clipPath>
</defs>
</svg>
