<svg width="841" height="841" viewBox="0 0 841 841" fill="none" xmlns="http://www.w3.org/2000/svg">
<g opacity="0.5">
<path d="M420.501 607.167C523.594 607.167 607.167 523.593 607.167 420.5C607.167 317.407 523.594 233.833 420.501 233.833C317.408 233.833 233.834 317.407 233.834 420.5C233.834 523.593 317.408 607.167 420.501 607.167Z" stroke="#CFA046" stroke-width="1.33333" stroke-linejoin="bevel"/>
<path d="M420.5 618.27C529.725 618.27 618.269 529.725 618.269 420.5C618.269 311.275 529.725 222.731 420.5 222.731C311.275 222.731 222.73 311.275 222.73 420.5C222.73 529.725 311.275 618.27 420.5 618.27Z" stroke="#CFA046" stroke-width="1.33333" stroke-linejoin="bevel"/>
<path d="M420.5 629.374C535.858 629.374 629.374 535.858 629.374 420.5C629.374 305.143 535.858 211.627 420.5 211.627C305.143 211.627 211.627 305.143 211.627 420.5C211.627 535.858 305.143 629.374 420.5 629.374Z" stroke="#CFA046" stroke-width="1.33333" stroke-linejoin="bevel"/>
<path d="M420.499 640.476C541.989 640.476 640.476 541.99 640.476 420.5C640.476 299.011 541.989 200.524 420.499 200.524C299.01 200.524 200.523 299.011 200.523 420.5C200.523 541.99 299.01 640.476 420.499 640.476Z" stroke="#CFA046" stroke-width="1.33333" stroke-linejoin="bevel"/>
<path d="M420.5 651.58C548.122 651.58 651.58 548.122 651.58 420.5C651.58 292.878 548.122 189.42 420.5 189.42C292.878 189.42 189.42 292.878 189.42 420.5C189.42 548.122 292.878 651.58 420.5 651.58Z" stroke="#CFA046" stroke-width="1.33333" stroke-linejoin="bevel"/>
<path d="M420.501 662.683C554.255 662.683 662.684 554.254 662.684 420.5C662.684 286.746 554.255 178.317 420.501 178.317C286.747 178.317 178.318 286.746 178.318 420.5C178.318 554.254 286.747 662.683 420.501 662.683Z" stroke="#CFA046" stroke-width="1.33333" stroke-linejoin="bevel"/>
<path d="M420.5 673.786C560.386 673.786 673.786 560.386 673.786 420.5C673.786 280.615 560.386 167.215 420.5 167.215C280.615 167.215 167.215 280.615 167.215 420.5C167.215 560.386 280.615 673.786 420.5 673.786Z" stroke="#CFA046" stroke-width="1.33333" stroke-linejoin="bevel"/>
<path d="M420.501 684.889C566.519 684.889 684.89 566.518 684.89 420.5C684.89 274.482 566.519 156.111 420.501 156.111C274.482 156.111 156.111 274.482 156.111 420.5C156.111 566.518 274.482 684.889 420.501 684.889Z" stroke="#CFA046" stroke-width="1.33333" stroke-linejoin="bevel"/>
<path d="M420.5 695.992C572.65 695.992 695.992 572.65 695.992 420.5C695.992 268.35 572.65 145.008 420.5 145.008C268.35 145.008 145.008 268.35 145.008 420.5C145.008 572.65 268.35 695.992 420.5 695.992Z" stroke="#CFA046" stroke-width="1.33333" stroke-linejoin="bevel"/>
<path d="M420.5 707.096C578.783 707.096 707.096 578.783 707.096 420.5C707.096 262.217 578.783 133.904 420.5 133.904C262.218 133.904 133.904 262.217 133.904 420.5C133.904 578.783 262.218 707.096 420.5 707.096Z" stroke="#CFA046" stroke-width="1.33333" stroke-linejoin="bevel"/>
<path d="M420.5 718.199C584.914 718.199 718.198 584.915 718.198 420.5C718.198 256.086 584.914 122.801 420.5 122.801C256.085 122.801 122.801 256.086 122.801 420.5C122.801 584.915 256.085 718.199 420.5 718.199Z" stroke="#CFA046" stroke-width="1.33333" stroke-linejoin="bevel"/>
<path d="M420.501 729.302C591.047 729.302 729.302 591.046 729.302 420.5C729.302 249.954 591.047 111.699 420.501 111.699C249.954 111.699 111.699 249.954 111.699 420.5C111.699 591.046 249.954 729.302 420.501 729.302Z" stroke="#CFA046" stroke-width="1.33333" stroke-linejoin="bevel"/>
<path d="M420.499 740.406C597.178 740.406 740.405 597.179 740.405 420.5C740.405 243.821 597.178 100.595 420.499 100.595C243.82 100.595 100.594 243.821 100.594 420.5C100.594 597.179 243.82 740.406 420.499 740.406Z" stroke="#CFA046" stroke-width="1.33333" stroke-linejoin="bevel"/>
<path d="M420.5 751.508C603.311 751.508 751.508 603.311 751.508 420.5C751.508 237.689 603.311 89.4919 420.5 89.4919C237.69 89.4919 89.4922 237.689 89.4922 420.5C89.4922 603.311 237.69 751.508 420.5 751.508Z" stroke="#CFA046" stroke-width="1.33333" stroke-linejoin="bevel"/>
<path d="M420.501 762.612C609.444 762.612 762.613 609.443 762.613 420.5C762.613 231.557 609.444 78.3879 420.501 78.3879C231.557 78.3879 78.3887 231.557 78.3887 420.5C78.3887 609.443 231.557 762.612 420.501 762.612Z" stroke="#CFA046" stroke-width="1.33333" stroke-linejoin="bevel"/>
<path d="M420.5 773.715C615.575 773.715 773.715 615.575 773.715 420.5C773.715 225.425 615.575 67.2854 420.5 67.2854C225.425 67.2854 67.2852 225.425 67.2852 420.5C67.2852 615.575 225.425 773.715 420.5 773.715Z" stroke="#CFA046" stroke-width="1.33333" stroke-linejoin="bevel"/>
<path d="M420.501 784.817C621.708 784.817 784.818 621.707 784.818 420.5C784.818 219.293 621.708 56.1826 420.501 56.1826C219.294 56.1826 56.1836 219.293 56.1836 420.5C56.1836 621.707 219.294 784.817 420.501 784.817Z" stroke="#CFA046" stroke-width="1.33333" stroke-linejoin="bevel"/>
<path d="M420.5 795.921C627.839 795.921 795.921 627.84 795.921 420.5C795.921 213.161 627.839 45.0786 420.5 45.0786C213.16 45.0786 45.0781 213.161 45.0781 420.5C45.0781 627.84 213.16 795.921 420.5 795.921Z" stroke="#CFA046" stroke-width="1.33333" stroke-linejoin="bevel"/>
<path d="M420.501 807.024C633.972 807.024 807.025 633.972 807.025 420.5C807.025 207.029 633.972 33.9761 420.501 33.9761C207.029 33.9761 33.9766 207.029 33.9766 420.5C33.9766 633.972 207.029 807.024 420.501 807.024Z" stroke="#CFA046" stroke-width="1.33333" stroke-linejoin="bevel"/>
<path d="M420.499 818.128C640.103 818.128 818.127 640.104 818.127 420.5C818.127 200.896 640.103 22.8721 420.499 22.8721C200.895 22.8721 22.8711 200.896 22.8711 420.5C22.8711 640.104 200.895 818.128 420.499 818.128Z" stroke="#CFA046" stroke-width="1.33333" stroke-linejoin="bevel"/>
<path d="M420.5 829.231C646.236 829.231 829.231 646.236 829.231 420.5C829.231 194.764 646.236 11.7693 420.5 11.7693C194.765 11.7693 11.7695 194.764 11.7695 420.5C11.7695 646.236 194.765 829.231 420.5 829.231Z" stroke="#CFA046" stroke-width="1.33333" stroke-linejoin="bevel"/>
<path d="M420.499 840.334C652.367 840.334 840.333 652.368 840.333 420.5C840.333 188.633 652.367 0.666748 420.499 0.666748C188.632 0.666748 0.666016 188.633 0.666016 420.5C0.666016 652.368 188.632 840.334 420.499 840.334Z" stroke="#CFA046" stroke-width="1.33333" stroke-linejoin="bevel"/>
</g>
</svg>
